<?xml version="1.0" encoding="utf-8"?>
<!-- Generator: Adobe Illustrator 18.1.0, SVG Export Plug-In . SVG Version: 6.00 Build 0)  -->
<svg version="1.1" id="Layer_1" xmlns="http://www.w3.org/2000/svg" xmlns:xlink="http://www.w3.org/1999/xlink" x="0px" y="0px"
	 viewBox="0 0 150 150" enable-background="new 0 0 150 150" xml:space="preserve">
<g id="logo">
	<rect id="background" fill="#F3DF49" width="150" height="150"/>
	<path id="j" fill="#2E2E2C" d="M39.44,125.351l11.479-6.947c2.215,3.927,4.229,7.249,9.061,7.249c4.632,0,7.552-1.812,7.552-8.86
		V68.864h14.096v48.128c0,14.6-8.558,21.246-21.044,21.246c-11.277,0-17.822-5.84-21.145-12.888"/>
	<path id="s" fill="#2E2E2C" d="M89.286,123.84l11.478-6.645c3.022,4.934,6.948,8.559,13.896,8.559c5.841,0,9.565-2.92,9.565-6.948
		c0-4.833-3.826-6.545-10.27-9.363l-3.523-1.511c-10.17-4.329-16.917-9.766-16.917-21.245c0-10.572,8.055-18.628,20.642-18.628
		c8.961,0,15.405,3.122,20.037,11.278l-10.975,7.048c-2.417-4.329-5.034-6.041-9.061-6.041c-4.128,0-6.746,2.618-6.746,6.041
		c0,4.229,2.618,5.941,8.659,8.559l3.524,1.51c11.982,5.135,18.729,10.371,18.729,22.151c0,12.687-9.968,19.634-23.36,19.634
		C101.871,138.239,93.413,131.997,89.286,123.84"/>
</g>
<g id="XMLID_4_">
	<g>
		<path fill="#2E2E2C" d="M15.093,109.17l-1.14-0.03v-3.264h1.341l0.536-23.237h-1.408v-1.959h1.777l0.235-17.242h-1.576v-4.481
			h-0.905v-1.543h0.905l0.034-4.451h1.81h0.134h0.101l0.134-7.538h-1.274v-0.386h1.341l0.101-19.23h-1.442v-0.386h1.475
			l0.101-12.019v-0.059h-1.24v-0.356h1.442l0.134-9.615l0.134,9.615h1.475v0.356h-1.274v0.059l0.101,12.019h1.509v0.386h-1.475
			l0.134,19.23h1.341v0.386h-1.274l0.134,7.538h0.067h0.168h1.81v4.451h0.905v1.543h-0.872v4.481h-1.576l0.235,17.242h1.777v1.959
			h-1.408l0.536,23.237h1.341v3.264l-1.14,0.03l0.302,12.79h2.28v0.772h-2.146l0.268,12.197c0,0,6.974,14.957,6.538,14.987
			c-0.436,0-1.609,0-1.609,0l-1.878-4.333h-0.738l-0.201,4.362h-1.609l-0.939-4.333h-1.073l-0.838,4.392h-0.335h-1.308h-0.369
			l-0.805-4.392h-1.106l-0.905,4.333h-1.609l-0.201-4.362h-0.771l-1.844,4.333c0,0-1.173,0-1.609,0
			c-0.436-0.03,6.538-14.987,6.538-14.987l0.235-12.197h-2.112v-0.772h2.28L15.093,109.17z"/>
	</g>
	<g>
	</g>
</g>
</svg>
