<?xml version="1.0" encoding="utf-8"?>
<!-- Generator: Adobe Illustrator 18.1.0, SVG Export Plug-In . SVG Version: 6.00 Build 0)  -->
<svg version="1.1" id="Layer_1" xmlns="http://www.w3.org/2000/svg" xmlns:xlink="http://www.w3.org/1999/xlink" x="0px" y="0px"
	 viewBox="0 0 300.01 35.9" enable-background="new 0 0 300.01 35.9" xml:space="preserve">
<g>
	<g>
		<path fill="#231F20" d="M9.493,1.041c7.81,0,11.667,4.637,11.667,10.153c0,4.931-3.27,8.982-8.738,10.057l10.593,14.547h-4.784
			L7.93,21.544H3.976v14.254h-4.003V1.041H9.493z M3.976,17.736h5.468c4.588,0,7.663-2.588,7.663-6.542
			c0-3.905-3.173-6.346-7.712-6.346H3.976V17.736z"/>
		<path fill="#231F20" d="M44.516,1.041l14.913,34.757h-4.234l-3.34-8.104H34.873l-3.293,8.104h-4.234L42.211,1.041H44.516z
			 M45.316,12.025c-0.659-1.562-1.552-3.607-1.788-4.437h-0.235c-0.282,0.976-1.035,2.728-1.787,4.486l-5.034,11.814h13.783
			L45.316,12.025z"/>
		<path fill="#231F20" d="M93.105,1.041h2.343v34.757h-4.003V14.449c0-2.099,0.097-4.589,0.146-5.565h-0.294
			c-0.585,0.732-1.952,2.343-3.075,3.466l-8.033,8.618l-8.033-8.618c-1.123-1.123-2.49-2.733-3.076-3.466H68.74
			c0.049,0.976,0.195,3.466,0.195,5.565v21.349h-4.052V1.041h2.392l12.915,14.215L93.105,1.041z"/>
		<path fill="#231F20" d="M114.637,1.041c7.567,0,10.985,4.589,10.985,9.519c0,2.977-1.66,6.004-4.052,7.225
			c3.173,1.318,5.37,4.93,5.37,8.201c0,6.395-5.077,9.812-11.033,9.812h-11.494V1.041H114.637z M108.416,16.272h6.661
			c3.808,0,6.59-1.757,6.59-5.711c0-3.71-3.027-5.712-6.737-5.712h-6.515V16.272z M108.416,31.991h7.296
			c4.003,0,7.127-1.953,7.127-6.103c0-3.905-3.027-5.809-7.469-5.809h-6.954V31.991z"/>
		<path fill="#231F20" d="M138.716,31.991h15.709v3.807h-19.711V1.041h4.003V31.991z"/>
		<path fill="#231F20" d="M160.474,1.041h19.233v3.807h-15.231v10.642h14.791v3.906h-14.791v12.595h15.231v3.807h-19.233V1.041z"/>
		<g>
			<path fill="#231F20" d="M197.457,1.041c7.811,0,11.668,4.637,11.668,10.153c0,4.931-3.271,8.982-8.738,10.057l10.593,14.547
				h-4.784l-10.3-14.254h-3.954v14.254h-4.003V1.041H197.457z M191.941,17.736h5.467c4.589,0,7.664-2.588,7.664-6.542
				c0-3.905-3.174-6.346-7.713-6.346h-5.419V17.736z"/>
		</g>
		<path fill="#231F20" d="M283.444,29.978c-0.089-0.23-0.153-0.472-0.177-0.726c-0.037-0.093-0.072-0.187-0.117-0.277
			c-0.072-0.144-0.148-0.285-0.227-0.425c-0.062-0.1-0.161-0.26-0.18-0.286c-0.239-0.346-0.484-0.688-0.751-1.012
			c-0.132-0.16-0.927-1-0.319-0.419c-0.165-0.158-0.307-0.331-0.437-0.51c-2.103,3.997-6.032,6.086-9.895,6.093
			c-7.99-0.014-13.178-6.451-13.178-14.106c0-7.712,5.516-14.107,13.521-14.107c3.075,0,5.955,1.074,8.396,2.88v-4.54
			c-2.587-1.416-5.418-2.196-8.396-2.196c-9.763,0-17.622,7.908-17.622,17.963c0,10.018,7.488,17.855,17.198,17.912
			c0.021,0.001,0.04,0.003,0.062,0.003c0.007,0,0.014-0.001,0.021-0.001c0.008,0.001,0.016,0.001,0.024,0.001v-0.001
			C276.218,36.21,280.82,33.915,283.444,29.978z"/>
		<path fill="#231F20" d="M289.461,14.377c6.134,0,10.523,4.907,10.523,10.948c0,5.945-4.389,10.9-10.523,10.9
			c-6.134,0-10.523-4.955-10.523-10.806C278.938,18.955,283.609,14.377,289.461,14.377z M289.461,32.734
			c3.681,0,6.606-3.067,6.606-7.456c0-4.435-3.209-7.408-6.606-7.408c-3.539,0-6.606,3.02-6.606,7.503
			C282.855,29.43,285.686,32.734,289.461,32.734z"/>
		<path fill="#231F20" d="M245.039,35.678l-5.517-5.81c-3.174,4.248-6.689,6.347-10.497,6.347c-3.125,0-5.712-1.025-7.812-3.027
			c-2.099-2.051-3.125-4.492-3.125-7.372c0-4.638,2.783-7.177,8.056-10.448c-2.539-2.588-3.808-5.029-3.808-7.275
			c0-2.295,0.83-4.15,2.441-5.566c1.611-1.465,3.613-2.197,5.908-2.197c2.295,0,4.247,0.732,5.859,2.197
			c1.66,1.465,2.49,3.32,2.49,5.615c0,2.978-2.148,5.712-6.493,8.202l6.689,7.226l3.515-5.615h4.736l-5.469,8.593l8.544,9.13
			H245.039z M228.845,18.092c-4.616,2.257-6.924,5.026-6.924,8.361c0,1.641,0.718,3.078,2.155,4.36
			c1.436,1.282,3.026,1.898,4.718,1.898c1.18,0,2.359-0.36,3.54-1.026c1.179-0.718,2.001-1.385,2.565-2
			c0.564-0.667,1.334-1.538,2.206-2.719L228.845,18.092z M229.711,13.654c1.436-0.667,2.206-1.128,3.488-2.103
			c1.282-1.026,2.001-2.257,2.001-3.693c0-2.462-1.949-4.155-4.565-4.155c-2.616,0-4.514,1.796-4.514,4.001
			C226.121,9.346,227.301,11.346,229.711,13.654z"/>
	</g>
</g>
</svg>
