<?xml version="1.0" encoding="utf-8"?>
<!-- Generator: Adobe Illustrator 18.1.0, SVG Export Plug-In . SVG Version: 6.00 Build 0)  -->
<svg version="1.1" id="Layer_1" xmlns="http://www.w3.org/2000/svg" xmlns:xlink="http://www.w3.org/1999/xlink" x="0px" y="0px"
	 viewBox="0 0 1232 210.6" enable-background="new 0 0 1232 210.6" xml:space="preserve">
<g>
	<g>
		<path fill="#231F20" d="M73.7,38.7c30.1,0,45,17.9,45,39.2c0,19-12.6,34.7-33.7,38.8l40.9,56.2h-18.5l-39.8-55H52.4v55H37V38.7
			H73.7z M52.4,103.2h21.1c17.7,0,29.6-10,29.6-25.3c0-15.1-12.2-24.5-29.8-24.5H52.4V103.2z"/>
		<path fill="#231F20" d="M208.9,38.7l57.6,134.2h-16.3l-12.9-31.3h-65.6L159,172.9h-16.3L200,38.7H208.9z M212,81.1
			c-2.5-6-6-13.9-6.9-17.1h-0.9c-1.1,3.8-4,10.5-6.9,17.3l-19.4,45.6h53.2L212,81.1z"/>
		<path fill="#231F20" d="M396.4,38.7h9v134.2H390V90.5c0-8.1,0.4-17.7,0.6-21.5h-1.1c-2.3,2.8-7.5,9-11.9,13.4l-31,33.3l-31-33.3
			c-4.3-4.3-9.6-10.6-11.9-13.4h-1.3c0.2,3.8,0.8,13.4,0.8,21.5v82.4h-15.6V38.7h9.2l49.9,54.9L396.4,38.7z"/>
		<path fill="#231F20" d="M479.6,38.7c29.2,0,42.4,17.7,42.4,36.7c0,11.5-6.4,23.2-15.6,27.9c12.2,5.1,20.7,19,20.7,31.7
			c0,24.7-19.6,37.9-42.6,37.9h-44.4V38.7H479.6z M455.5,97.5h25.7c14.7,0,25.4-6.8,25.4-22c0-14.3-11.7-22-26-22h-25.1V97.5z
			 M455.5,158.2h28.2c15.5,0,27.5-7.5,27.5-23.6c0-15.1-11.7-22.4-28.8-22.4h-26.8V158.2z"/>
		<path fill="#231F20" d="M572.5,158.2h60.6v14.7h-76.1V38.7h15.5V158.2z"/>
		<path fill="#231F20" d="M656.5,38.7h74.2v14.7h-58.8v41.1H729v15.1h-57.1v48.6h58.8v14.7h-74.2V38.7z"/>
		<g>
			<path fill="#231F20" d="M799.2,38.7c30.2,0,45,17.9,45,39.2c0,19-12.6,34.7-33.7,38.8l40.9,56.2H833l-39.8-55H778v55h-15.5V38.7
				H799.2z M778,103.2h21.1c17.7,0,29.6-10,29.6-25.3c0-15.1-12.3-24.5-29.8-24.5H778V103.2z"/>
		</g>
		<path fill="#231F20" d="M1131.2,150.4c-0.3-0.9-0.6-1.8-0.7-2.8c-0.1-0.4-0.3-0.7-0.5-1.1c-0.3-0.6-0.6-1.1-0.9-1.6
			c-0.2-0.4-0.6-1-0.7-1.1c-0.9-1.3-1.9-2.7-2.9-3.9c-0.5-0.6-3.6-3.9-1.2-1.6c-0.6-0.6-1.2-1.3-1.7-2
			c-8.1,15.4-23.3,23.5-38.2,23.5c-30.8-0.1-50.9-24.9-50.9-54.5c0-29.8,21.3-54.5,52.2-54.5c11.9,0,23,4.1,32.4,11.1V44.5
			c-10-5.5-20.9-8.5-32.4-8.5c-37.7,0-68,30.5-68,69.3c0,38.7,28.9,68.9,66.4,69.1c0.1,0,0.2,0,0.2,0c0,0,0.1,0,0.1,0
			c0,0,0.1,0,0.1,0v0C1103.3,174.5,1121,165.6,1131.2,150.4z"/>
		<path fill="#231F20" d="M1154.4,90.2c23.7,0,40.6,18.9,40.6,42.3c0,22.9-16.9,42.1-40.6,42.1c-23.7,0-40.6-19.1-40.6-41.7
			C1113.8,107.9,1131.8,90.2,1154.4,90.2z M1154.4,161.1c14.2,0,25.5-11.8,25.5-28.8c0-17.1-12.4-28.6-25.5-28.6
			c-13.7,0-25.5,11.7-25.5,29C1128.9,148.3,1139.8,161.1,1154.4,161.1z"/>
		<path fill="#231F20" d="M982.9,172.4L961.6,150c-12.3,16.4-25.8,24.5-40.5,24.5c-12.1,0-22-4-30.2-11.7
			c-8.1-7.9-12.1-17.3-12.1-28.5c0-17.9,10.7-27.7,31.1-40.3c-9.8-10-14.7-19.4-14.7-28.1c0-8.9,3.2-16,9.4-21.5
			c6.2-5.7,13.9-8.5,22.8-8.5c8.9,0,16.4,2.8,22.6,8.5c6.4,5.7,9.6,12.8,9.6,21.7c0,11.5-8.3,22-25.1,31.7l25.8,27.9l13.6-21.7h18.3
			l-21.1,33.2l33,35.2H982.9z M920.4,104.6c-17.8,8.7-26.7,19.4-26.7,32.3c0,6.3,2.8,11.9,8.3,16.8c5.5,5,11.7,7.3,18.2,7.3
			c4.6,0,9.1-1.4,13.7-4c4.6-2.8,7.7-5.3,9.9-7.7c2.2-2.6,5.1-5.9,8.5-10.5L920.4,104.6z M923.7,87.4c5.5-2.6,8.5-4.4,13.5-8.1
			c4.9-4,7.7-8.7,7.7-14.3c0-9.5-7.5-16-17.6-16c-10.1,0-17.4,6.9-17.4,15.4C909.9,70.8,914.4,78.5,923.7,87.4z"/>
	</g>
</g>
</svg>
