<svg xmlns="http://www.w3.org/2000/svg" xmlns:xlink="http://www.w3.org/1999/xlink" width="300.01" height="186" viewBox="0 0 300.01 186"><svg viewBox="0 0 150 150" enable-background="new 0 0 150 150" width="150" height="150" id="MoscowJS" y="0"><g><path fill="#F3DF49" d="M0 0h150v150H0z"/><path fill="#2E2E2C" d="M39.44 125.35l11.48-6.946c2.214 3.927 4.228 7.25 9.06 7.25 4.632 0 7.552-1.813 7.552-8.86v-47.93h14.096v48.128c0 14.6-8.558 21.246-21.044 21.246-11.277 0-17.822-5.84-21.145-12.888"/><path fill="#2E2E2C" d="M89.286 123.84l11.478-6.645c3.022 4.934 6.948 8.56 13.896 8.56 5.84 0 9.565-2.92 9.565-6.95 0-4.832-3.826-6.544-10.27-9.362l-3.523-1.51c-10.17-4.33-16.917-9.767-16.917-21.246 0-10.572 8.055-18.628 20.642-18.628 8.96 0 15.405 3.12 20.037 11.277l-10.975 7.048c-2.418-4.33-5.035-6.04-9.062-6.04-4.128 0-6.746 2.617-6.746 6.04 0 4.23 2.618 5.94 8.66 8.56l3.523 1.51c11.982 5.134 18.73 10.37 18.73 22.15 0 12.687-9.97 19.634-23.36 19.634-13.094 0-21.552-6.243-25.68-14.4"/></g><g><path fill="#2E2E2C" d="M15.093 109.17l-1.14-.03v-3.264h1.34l.537-23.237h-1.408v-1.96H16.2l.234-17.242h-1.576v-4.48h-.905v-1.544h.905l.034-4.45h2.044l.135-7.54h-1.273v-.385h1.34l.102-19.23h-1.443v-.387h1.475l.1-12.02v-.058h-1.24v-.356h1.443l.134-9.616.133 9.615h1.475v.355h-1.274v.06l.1 12.018h1.51v.386H18.18l.133 19.23h1.34v.385H18.38l.134 7.538h2.047v4.45h.904v1.544h-.872v4.48h-1.576l.235 17.243h1.778v1.96H19.62l.536 23.236h1.34v3.264l-1.14.03.303 12.79h2.28v.772h-2.147l.268 12.197s6.975 14.956 6.54 14.986h-1.61l-1.878-4.333h-.738l-.2 4.362h-1.61l-.94-4.333h-1.072l-.838 4.392H16.7l-.805-4.392H14.79l-.904 4.333h-1.61l-.2-4.362h-.77l-1.845 4.333H7.853c-.436-.03 6.538-14.987 6.538-14.987l.235-12.198h-2.112v-.772h2.28l.3-12.79z"/></g></svg><svg viewBox="0 0 300.01 35.9" enable-background="new 0 0 300.01 35.9" width="300.01" height="35.9" id="Rambler" y="150"><path fill="#231F20" d="M9.493 1.04c7.81 0 11.667 4.638 11.667 10.154 0 4.93-3.27 8.982-8.738 10.057L23.015 35.8H18.23L7.93 21.544H3.976v14.254H-.027V1.04h9.52zM3.976 17.737h5.468c4.588 0 7.663-2.588 7.663-6.542 0-3.905-3.173-6.346-7.712-6.346h-5.42v12.888zM44.516 1.04L59.43 35.8h-4.235l-3.34-8.104H34.873l-3.293 8.104h-4.234L42.21 1.04h2.306zm.8 10.985c-.66-1.562-1.552-3.607-1.788-4.437h-.235c-.282.976-1.035 2.728-1.787 4.486l-5.034 11.814h13.783l-4.94-11.863zM93.105 1.04h2.343V35.8h-4.003v-21.35c0-2.098.097-4.588.146-5.564h-.293c-.585.732-1.952 2.343-3.075 3.466l-8.033 8.618-8.034-8.618c-1.123-1.123-2.49-2.733-3.076-3.466h-.34c.05.976.195 3.466.195 5.565v21.348h-4.052V1.04h2.392L80.19 15.257 93.105 1.04zM114.637 1.04c7.567 0 10.985 4.59 10.985 9.52 0 2.977-1.66 6.004-4.052 7.225 3.173 1.318 5.37 4.93 5.37 8.2 0 6.396-5.077 9.813-11.033 9.813h-11.494V1.04h10.224zm-6.22 15.232h6.66c3.808 0 6.59-1.757 6.59-5.71 0-3.71-3.027-5.713-6.737-5.713h-6.515V16.27zm0 15.72h7.295c4.003 0 7.127-1.954 7.127-6.104 0-3.905-3.028-5.81-7.47-5.81h-6.954v11.913zM138.716 31.99h15.71V35.8h-19.712V1.04h4.003v30.95zM160.474 1.04h19.233V4.85h-15.23V15.49h14.79v3.906h-14.79V31.99h15.23V35.8h-19.233V1.04zM197.457 1.04c7.81 0 11.668 4.638 11.668 10.154 0 4.93-3.27 8.982-8.738 10.057L210.98 35.8h-4.784l-10.3-14.254h-3.954v14.254h-4.003V1.04h9.517zm-5.516 16.696h5.468c4.59 0 7.664-2.588 7.664-6.542 0-3.905-3.174-6.346-7.713-6.346h-5.42v12.888zM283.444 29.978c-.09-.23-.153-.472-.177-.726-.037-.093-.072-.187-.117-.277-.072-.144-.148-.285-.227-.425-.062-.1-.16-.26-.18-.286-.24-.346-.484-.688-.75-1.012-.133-.16-.928-1-.32-.42-.165-.157-.307-.33-.437-.51-2.103 3.998-6.032 6.087-9.895 6.094-7.99-.014-13.177-6.45-13.177-14.106 0-7.712 5.516-14.107 13.52-14.107 3.076 0 5.956 1.074 8.397 2.88v-4.54c-2.587-1.416-5.418-2.196-8.396-2.196-9.763 0-17.622 7.908-17.622 17.963 0 10.018 7.488 17.855 17.198 17.912.02 0 .04.003.062.003h.045c4.85-.015 9.453-2.31 12.077-6.247zM289.46 14.377c6.135 0 10.524 4.907 10.524 10.948 0 5.945-4.39 10.9-10.523 10.9S278.94 31.27 278.94 25.42c0-6.465 4.67-11.043 10.523-11.043zm0 18.357c3.682 0 6.607-3.067 6.607-7.456 0-4.435-3.21-7.408-6.606-7.408-3.538 0-6.605 3.02-6.605 7.503 0 4.057 2.83 7.36 6.606 7.36zM245.04 35.678l-5.518-5.81c-3.174 4.248-6.69 6.347-10.497 6.347-3.125 0-5.712-1.025-7.812-3.027-2.1-2.05-3.125-4.492-3.125-7.372 0-4.638 2.783-7.177 8.056-10.448-2.54-2.588-3.808-5.03-3.808-7.275 0-2.295.83-4.15 2.44-5.566C226.39 1.062 228.39.33 230.687.33c2.294 0 4.246.732 5.858 2.197 1.66 1.465 2.49 3.32 2.49 5.615 0 2.978-2.148 5.712-6.493 8.202l6.69 7.226 3.515-5.615h4.736l-5.468 8.593 8.544 9.13h-5.517zm-16.195-17.586c-4.616 2.257-6.924 5.026-6.924 8.36 0 1.642.72 3.08 2.156 4.36 1.436 1.283 3.026 1.9 4.718 1.9 1.18 0 2.36-.36 3.54-1.027 1.18-.718 2-1.385 2.565-2 .563-.667 1.333-1.538 2.205-2.72l-8.26-8.873zm.866-4.438c1.437-.667 2.207-1.128 3.49-2.103 1.28-1.025 2-2.256 2-3.692 0-2.462-1.95-4.155-4.565-4.155-2.616 0-4.514 1.796-4.514 4 0 1.643 1.18 3.643 3.59 5.95z"/></svg></svg>